:FULLY-SPECIFIED
:FORCE-ALL-JOINTS-BE-3DOF
:DEGREES
1733
root -5.29947 15.5645 26.9143 905.268 1.70074 167.907
lfemur -35.9937 14.0296 -16.6106
ltibia 60.8344 0 0
lfoot -18.7866 26.8414 0
ltoes -25.6382 0 0
rfemur -29.9425 -16.9997 21.8372
rtibia 70.261 0 0
rfoot -14.2638 -24.8552 0
rtoes 6.95989 0 0
lowerback 15.9002 2.32494 -7.72928
upperback -0.36142 1.76919 1.4469
thorax -9.46437 1.2316 5.48843
lowerneck 4.7143 -15.2582 -16.7833
upperneck -2.50014 -21.475 22.6568
head 2.67034 -10.9398 8.66974
lclavicle -7.93636e-14 2.63572e-14 0
lhumerus -54.0414 -33.8435 108.517
lradius 100.182 0 0
lwrist 41.4628 0 0
lhand -14.3905 40.3221 0
lfingers 7.12502 0 0
lthumb 11.8066 70.4759 0
rclavicle -7.93636e-14 2.63572e-14 0
rhumerus 28.554 22.8146 -30.8515
rradius 83.7104 0 0
rwrist 26.0501 0 0
rhand -5.84241 -33.9186 0
rfingers 7.12502 0 0
rthumb 19.9522 -62.5436 0
1734
root -5.25178 15.5733 26.9692 904.269 4.91089 168.193
lfemur -35.1569 13.045 -15.6925
ltibia 60.6129 0 0
lfoot -18.5307 26.6583 0
ltoes -26.14 0 0
rfemur -30.1381 -17.4632 21.8418
rtibia 69.1736 0 0
rfoot -14.3254 -24.5623 0
rtoes 6.32802 0 0
lowerback 15.9054 2.59231 -7.80357
upperback -0.367762 2.0973 1.21322
thorax -9.51859 1.39119 5.192
lowerneck 4.494 -15.1266 -16.7725
upperneck -2.31277 -21.2723 22.6003
head 2.70467 -10.8143 8.65566
lclavicle -7.60429e-14 2.58944e-14 0
lhumerus -56.0532 -32.1209 108.261
lradius 100.767 0 0
lwrist 41.7913 0 0
lhand -14.6748 39.9356 0
lfingers 7.12502 0 0
lthumb 11.535 70.1305 0
rclavicle -7.60429e-14 2.58944e-14 0
rhumerus 25.8212 22.0058 -32.3465
rradius 81.015 0 0
rwrist 29.0358 0 0
rhand -6.7151 -34.3638 0
rfingers 7.12502 0 0
rthumb 19.115 -63.0914 0
1735
root -5.2035 15.5816 27.0223 903.298 8.10271 168.6
lfemur -34.3259 12.0577 -14.777
ltibia 60.383 0 0
lfoot -18.2591 26.4661 0
ltoes -26.6354 0 0
rfemur -30.3299 -17.9172 21.8422
rtibia 68.0862 0 0
rfoot -14.3865 -24.2643 0
rtoes 5.68576 0 0
lowerback 15.9095 2.85803 -7.87114
upperback -0.374212 2.42462 0.981778
thorax -9.57178 1.55011 4.89454
lowerneck 4.27175 -14.9893 -16.755
upperneck -2.12181 -21.0615 22.535
head 2.73902 -10.6849 8.63842
lclavicle -7.26565e-14 2.54125e-14 0
lhumerus -58.0181 -30.4087 107.995
lradius 101.342 0 0
lwrist 42.0915 0 0
lhand -14.935 39.5412 0
lfingers 7.12502 0 0
lthumb 11.2862 69.7716 0
rclavicle -7.26565e-14 2.54125e-14 0
rhumerus 23.1134 21.2047 -33.8446
rradius 78.349 0 0
rwrist 31.9512 0 0
rhand -7.57193 -34.7989 0
rfingers 7.12502 0 0
rthumb 18.2929 -63.6271 0
1736
root -5.15419 15.5892 27.0737 902.375 11.2669 169.126
lfemur -33.5066 11.0739 -13.8683
ltibia 60.1445 0 0
lfoot -17.9711 26.2643 0
ltoes -27.1204 0 0
rfemur -30.5151 -18.3597 21.839
rtibia 67.0044 0 0
rfoot -14.4479 -23.9643 0
rtoes 5.03564 0 0
lowerback 15.9125 3.12078 -7.93116
upperback -0.3808 2.74962 0.753786
thorax -9.62369 1.70759 4.5973
lowerneck 4.04815 -14.8459 -16.7305
upperneck -1.92754 -20.8426 22.4607
head 2.77336 -10.5516 8.6179
lclavicle -6.92165e-14 2.4914e-14 0
lhumerus -59.922 -28.7153 107.717
lradius 101.904 0 0
lwrist 42.358 0 0
lhand -15.1677 39.1394 0
lfingers 7.12502 0 0
lthumb 11.0633 69.399 0
rclavicle -6.92165e-14 2.4914e-14 0
rhumerus 20.4437 20.417 -35.3394
rradius 75.7294 0 0
rwrist 34.7798 0 0
rhand -8.40778 -35.2202 0
rfingers 7.12502 0 0
rthumb 17.491 -64.1466 0
1737
root -5.10339 15.5963 27.1235 901.522 14.3943 169.77
lfemur -32.7048 10.0998 -12.9707
ltibia 59.8969 0 0
lfoot -17.6657 26.0525 0
ltoes -27.5909 0 0
rfemur -30.6907 -18.7889 21.8331
rtibia 65.9338 0 0
rfoot -14.5102 -23.6651 0
rtoes 4.38021 0 0
lowerback 15.9144 3.37923 -7.98278
upperback -0.387557 3.07074 0.530459
thorax -9.67409 1.86286 4.30152
lowerneck 3.82379 -14.6964 -16.6983
upperneck -1.73022 -20.6154 22.3771
head 2.80765 -10.4144 8.59395
lclavicle -6.57351e-14 2.44012e-14 0
lhumerus -61.7512 -27.0489 107.427
lradius 102.449 0 0
lwrist 42.5855 0 0
lhand -15.3698 38.7306 0
lfingers 7.12502 0 0
lthumb 10.8696 69.0125 0
rclavicle -6.57351e-14 2.44012e-14 0
rhumerus 17.8247 19.648 -36.8246
rradius 73.173 0 0
rwrist 37.5052 0 0
rhand -9.21754 -35.6242 0
rfingers 7.12502 0 0
rthumb 16.7142 -64.6457 0
1738
root -5.05066 15.6028 27.1718 900.758 17.4754 170.529
lfemur -31.9262 9.14151 -12.0885
ltibia 59.6399 0 0
lfoot -17.3421 25.8301 0
ltoes -28.0425 0 0
rfemur -30.8537 -19.2026 21.8252
rtibia 64.8799 0 0
rfoot -14.5744 -23.3697 0
rtoes 3.72203 0 0
lowerback 15.915 3.63205 -8.02515
upperback -0.39451 3.38647 0.31301
thorax -9.72273 2.01516 4.00844
lowerneck 3.59926 -14.5406 -16.6583
upperneck -1.53014 -20.3797 22.2839
head 2.84185 -10.2734 8.56644
lclavicle -6.22246e-14 2.38763e-14 0
lhumerus -63.4917 -25.4175 107.127
lradius 102.974 0 0
lwrist 42.7687 0 0
lhand -15.5377 38.3153 0
lfingers 7.12502 0 0
lthumb 10.7081 68.6118 0
rclavicle -6.22246e-14 2.38763e-14 0
rhumerus 15.2694 18.9034 -38.2937
rradius 70.6969 0 0
rwrist 40.1111 0 0
rhand -9.9961 -36.0076 0
rfingers 7.12502 0 0
rthumb 15.9672 -65.1203 0
1739
root -4.99554 15.6086 27.2184 900.105 20.5012 171.403
lfemur -31.1768 8.20531 -11.2259
ltibia 59.3731 0 0
lfoot -16.9995 25.5967 0
ltoes -28.4713 0 0
rfemur -31.0014 -19.5991 21.8159
rtibia 63.8484 0 0
rfoot -14.6411 -23.0811 0
rtoes 3.06363 0 0
lowerback 15.9145 3.87792 -8.05743
upperback -0.401689 3.69525 0.102654
thorax -9.76938 2.16372 3.71931
lowerneck 3.37518 -14.3782 -16.6098
upperneck -1.32756 -20.1355 22.1808
head 2.8759 -10.1286 8.53525
lclavicle -5.8697e-14 2.33418e-14 0
lhumerus -65.1296 -23.8295 106.817
lradius 103.473 0 0
lwrist 42.9022 0 0
lhand -15.6682 37.894 0
lfingers 7.12502 0 0
lthumb 10.5821 68.1967 0
rclavicle -5.8697e-14 2.33418e-14 0
rhumerus 12.7906 18.1886 -39.7402
rradius 68.3179 0 0
rwrist 42.581 0 0
rhand -10.7383 -36.3666 0
rfingers 7.12502 0 0
rthumb 15.2551 -65.5662 0
1740
root -4.93757 15.6138 27.2636 899.584 23.4623 172.389
lfemur -30.4623 7.2974 -10.3872
ltibia 59.0961 0 0
lfoot -16.6369 25.3518 0
ltoes -28.873 0 0
rfemur -31.1307 -19.9763 21.8061
rtibia 62.8449 0 0
rfoot -14.7113 -22.8024 0
rtoes 2.40756 0 0
lowerback 15.9127 4.11551 -8.07876
upperback -0.409124 3.99556 -0.0993945
thorax -9.8138 2.30776 3.43537
lowerneck 3.15212 -14.209 -16.5524
upperneck -1.12277 -19.8825 22.0675
head 2.90978 -9.98005 8.50022
lclavicle -5.51647e-14 2.27999e-14 0
lhumerus -66.651 -22.293 106.496
lradius 103.945 0 0
lwrist 42.9807 0 0
lhand -15.7579 37.4672 0
lfingers 7.12502 0 0
lthumb 10.4946 67.7669 0
rclavicle -5.51647e-14 2.27999e-14 0
rhumerus 10.4012 17.5092 -41.1578
rradius 66.053 0 0
rwrist 44.8986 0 0
rhand -11.4392 -36.698 0
rfingers 7.12502 0 0
rthumb 14.5827 -65.9794 0
